<svg xmlns="http://www.w3.org/2000/svg" version="1.1" viewBox="0 0 566.9488243430153 379" style="max-height: 500px" width="566.9488243430153" height="379">

<path style="opacity: 1; visibility: visible; fill: rgb(255, 0, 0);" data-index="1" transform="translate(193,25)" fill="#F3F2F2" d="M0 0 C0.87156738 0.02513672 1.74313477 0.05027344 2.64111328 0.07617188 C21.85506481 0.84425968 40.95369551 7.3529247 58 16 C58.79535156 16.309375 59.59070313 16.61875 60.41015625 16.9375 C84.06080032 26.64032834 109.23266787 47.5169103 123 69 C123 69.66 123 70.32 123 71 C116.12799151 73.41194023 109.21347019 75.53146696 102.1875 77.4375 C95.21707764 79.3334081 88.38819725 81.46924358 81.55078125 83.8046875 C76.99762807 85.33743214 72.40723793 86.72938815 67.8046875 88.10546875 C65.00730119 88.94511818 65.00730119 88.94511818 62.4453125 90.11328125 C59.64346788 91.12928561 57.95534651 91.44170818 55 91 C52.30859375 89.27734375 52.30859375 89.27734375 49.4375 86.9375 C38.07519109 78.02977265 25.21629513 71.11888108 11 68 C11 67.34 11 66.68 11 66 C-14.40431827 63.65240623 -38.63509938 63.54121958 -62 75 C-62.90621094 75.43957031 -63.81242187 75.87914063 -64.74609375 76.33203125 C-72.09042834 80.11358225 -78.54967264 84.86329268 -85 90 C-85.7321875 90.57621094 -86.464375 91.15242188 -87.21875 91.74609375 C-107.87217146 108.83434127 -120.00711812 135.78328271 -123 162 C-125.50549916 190.01386676 -116.49923012 219.18853636 -98.60546875 240.90625 C-96.45659688 243.32952176 -94.25854383 245.67921283 -92 248 C-91.175 248.886875 -90.35 249.77375 -89.5 250.6875 C-82.49233219 257.16959272 -73.60127741 265.11050376 -64 267 C-64 267.66 -64 268.32 -64 269 C-62.4840625 269.3403125 -62.4840625 269.3403125 -60.9375 269.6875 C-55.5014578 271.02961344 -50.25424544 272.92784529 -44.9765625 274.78125 C-35.8952157 277.69708869 -27.19579351 278.33925378 -17.6875 278.3125 C-16.55376953 278.32861328 -15.42003906 278.34472656 -14.25195312 278.36132812 C-6.13093499 278.36595549 1.17912292 277.13843928 9 275 C10.00144043 274.73074707 11.00288086 274.46149414 12.03466797 274.18408203 C26.8946828 270.00205319 41.5160777 260.85145684 52.1640625 249.7421875 C54 248 54 248 56 248 C54.47584736 251.56178985 52.35813741 253.90321844 49.6875 256.6875 C44.68928608 262.08239757 40.25386009 267.78340144 35.83007812 273.65332031 C31.78539993 279.00881806 27.59017649 284.18247601 23.26171875 289.3125 C17.56264718 296.08445378 12.15737273 303.08032159 6.78344727 310.11083984 C3.35915228 314.57389225 -0.17072005 318.93555723 -3.828125 323.2109375 C-6.10666187 325.98882048 -6.10666187 325.98882048 -7.859375 329.3515625 C-12.42458456 337.14894042 -12.42458456 337.14894042 -16.86621094 338.61669922 C-36.14856033 341.82143468 -62.90763775 334.15255007 -80.625 326.8125 C-81.88183594 326.29623047 -81.88183594 326.29623047 -83.1640625 325.76953125 C-83.76992187 325.51558594 -84.37578125 325.26164062 -85 325 C-85 324.34 -85 323.68 -85 323 C-85.680625 322.9175 -86.36125 322.835 -87.0625 322.75 C-90.05895932 321.98494656 -92.34601386 320.76874995 -94.9609375 319.1328125 C-97.15589143 317.86122567 -97.15589143 317.86122567 -100.2734375 316.65625 C-104.23775067 314.98634736 -107.70002339 312.78758738 -111.25 310.375 C-112.23432007 309.70815186 -112.23432007 309.70815186 -113.23852539 309.02783203 C-136.17338043 293.29739428 -153.31012559 272.99256341 -167 249 C-167.49113281 248.19304687 -167.98226562 247.38609375 -168.48828125 246.5546875 C-171.70962025 241.14922081 -173.75934403 235.47346532 -175.7890625 229.52734375 C-176.64060653 227.04687838 -177.53166927 224.62310708 -178.484375 222.18359375 C-180.2203833 217.58355902 -181.44219025 212.89274546 -182.625 208.125 C-182.8415625 207.29097656 -183.058125 206.45695313 -183.28125 205.59765625 C-185.97494598 194.83950009 -186.18647926 184.20667047 -186.18530273 173.17089844 C-186.18747589 170.90019589 -186.20565475 168.62999126 -186.22460938 166.359375 C-186.28019483 152.49743561 -185.04433291 139.1334337 -181.1875 125.75 C-180.92179199 124.80817871 -180.65608398 123.86635742 -180.38232422 122.89599609 C-178.39782376 116.02328267 -176.11336972 109.45097105 -173 103 C-172.70335449 102.37931641 -172.40670898 101.75863281 -172.10107422 101.11914062 C-162.45355912 81.02615949 -150.73068786 63.80720337 -135 48 C-134.49742676 47.49339844 -133.99485352 46.98679688 -133.47705078 46.46484375 C-125.13245504 38.16828666 -115.76189868 31.50871035 -106 25 C-105.38914551 24.59056152 -104.77829102 24.18112305 -104.14892578 23.75927734 C-98.07329072 19.72762173 -92.1968448 16.38459751 -85.2578125 14.12890625 C-82.5870414 13.20342322 -80.02873616 12.19277473 -77.4296875 11.08984375 C-66.97771097 6.66925818 -57.30857539 3.45030575 -46 2 C-44.96069336 1.84990479 -44.96069336 1.84990479 -43.90039062 1.69677734 C-29.31985517 -0.39038226 -14.70094043 -0.4312337 0 0 Z"/>
<path style="opacity: 1; visibility: visible; fill: rgb(255, 0, 0);" data-index="2" transform="translate(535,56)" fill="#F7550E" d="M0 0 C0.66 0.33 1.32 0.66 2 1 C0.82244141 2.25103516 0.82244141 2.25103516 -0.37890625 3.52734375 C-5.47879317 8.97698368 -10.47587926 14.39871705 -14.96875 20.3671875 C-17.85339304 24.10612867 -20.86666889 27.73527123 -23.875 31.375 C-24.48867432 32.1179834 -25.10234863 32.8609668 -25.73461914 33.62646484 C-26.94022091 35.08578448 -28.14602601 36.54493617 -29.35205078 38.00390625 C-32.91756506 42.32266844 -36.45688753 46.66285668 -40 51 C-41.49985696 52.83345036 -42.9998594 54.66678171 -44.5 56.5 C-45.24765625 57.41394531 -45.9953125 58.32789063 -46.765625 59.26953125 C-48.21297051 61.03822795 -49.66085301 62.80648543 -51.109375 64.57421875 C-60.46811625 75.9993974 -69.7981627 87.44790988 -79 99 C-88.23095228 110.58864139 -97.51061598 122.13633935 -107.11645508 133.41723633 C-109.94993981 136.74755126 -112.73993544 140.10864408 -115.5 143.5 C-123.49175714 153.29451585 -131.67386309 162.82989782 -140.29296875 172.078125 C-142.97931597 174.97767438 -145.58521622 177.93065795 -148.16796875 180.921875 C-150.06052219 183.06865204 -151.9984914 185.16988357 -153.9440918 187.26855469 C-158.02957824 191.67678132 -161.97851851 196.12711003 -165.75 200.8125 C-168.76725478 204.55990896 -171.88623718 208.00418748 -175.33984375 211.34765625 C-177.04384226 213.04363594 -178.61714083 214.80489696 -180.1875 216.625 C-193.88250369 232.43156813 -208.32627937 248.30274235 -225 261 C-225.763125 261.60714844 -226.52625 262.21429688 -227.3125 262.83984375 C-232.71606278 267.12704547 -238.3150926 271.09649337 -244 275 C-245.051875 275.7425 -246.10375 276.485 -247.1875 277.25 C-250 279 -250 279 -253.2734375 280.37109375 C-256.865991 281.88132721 -260.10603258 283.78482415 -263.4375 285.8125 C-269.89302844 289.63767054 -276.53438223 292.29862939 -283.6015625 294.7734375 C-286.81459347 295.84107937 -286.81459347 295.84107937 -288.9453125 297.0390625 C-292.22288966 298.57192178 -295.73484829 299.21749666 -299.25 300 C-300.71366977 300.33277039 -302.17721209 300.66610187 -303.640625 301 C-304.72428345 301.24580811 -304.72428345 301.24580811 -305.82983398 301.49658203 C-307.97216596 301.99354328 -310.10559483 302.51795183 -312.23828125 303.0546875 C-319.990602 305.00283041 -326.98271181 306.2586222 -335 306 C-333.38387092 302.07644963 -330.6866819 299.28605335 -327.8125 296.25 C-326.81051284 295.17511738 -325.80920995 294.09959648 -324.80859375 293.0234375 C-324.32374512 292.50362305 -323.83889648 291.98380859 -323.33935547 291.44824219 C-321.64911801 289.62059206 -320.00607471 287.75553319 -318.375 285.875 C-312.64928639 279.27886912 -306.75865614 272.83005825 -300.875 266.375 C-298.07242619 263.29690434 -295.29032125 260.2069813 -292.5625 257.0625 C-289.6011649 253.6531142 -286.55847514 250.3220569 -283.5 247 C-279.85585671 243.04137814 -276.26086283 239.0482324 -272.734375 234.984375 C-268.44320048 230.0746528 -264.04197892 225.26125182 -259.671875 220.421875 C-256.31574095 216.70044745 -252.96775821 212.97607909 -249.6875 209.1875 C-246.01760894 204.97011937 -242.21014304 200.88386015 -238.40966797 196.78466797 C-235.11282282 193.22266657 -231.87640018 189.61874791 -228.69921875 185.94921875 C-226.69764242 183.65315763 -224.66364306 181.38820959 -222.625 179.125 C-221.86445313 178.28066406 -221.10390625 177.43632812 -220.3203125 176.56640625 C-218.79834913 174.88302252 -217.27243374 173.20320165 -215.7421875 171.52734375 C-211.73485695 167.12207272 -207.79084742 162.66579907 -203.9375 158.125 C-203.18339844 157.24070313 -202.42929687 156.35640625 -201.65234375 155.4453125 C-199.62674535 152.93949106 -199.62674535 152.93949106 -200 149 C-201.54565668 147.0148626 -203.0626806 145.28724244 -204.8125 143.5 C-205.83099424 142.42603257 -206.84921607 141.35180674 -207.8671875 140.27734375 C-208.39022461 139.73190918 -208.91326172 139.18647461 -209.45214844 138.62451172 C-211.82015692 136.13922332 -214.12564085 133.60015298 -216.4375 131.0625 C-217.34720609 130.06989975 -218.25736832 129.07771736 -219.16796875 128.0859375 C-220.62520961 126.49835767 -222.0820491 124.91042083 -223.53759766 123.32128906 C-228.74235594 117.64073168 -233.94343516 111.98251575 -239.4453125 106.5859375 C-241.10854157 104.88927669 -242.64562567 103.11996034 -244.1875 101.3125 C-247.82028002 97.08526507 -251.75103608 93.1906147 -255.73706055 89.30004883 C-258.72926992 86.3587124 -261.53748774 83.40285107 -264 80 C-264 79.34 -264 78.68 -264 78 C-255.0449197 74.30684645 -245.98868572 71.40963937 -236.703125 68.69140625 C-232.48959868 67.45482787 -228.29736162 66.16032265 -224.109375 64.83984375 C-222.94043701 64.47286377 -221.77149902 64.10588379 -220.56713867 63.7277832 C-218.26615051 63.00374534 -215.96676907 62.27457738 -213.66918945 61.53979492 C-212.6143335 61.20955322 -211.55947754 60.87931152 -210.47265625 60.5390625 C-209.53687744 60.24209473 -208.60109863 59.94512695 -207.63696289 59.63916016 C-204.9243592 58.98166581 -202.77582301 58.70280827 -200 59 C-197.84981368 60.88892066 -196.09674335 62.66051726 -194.25 64.8125 C-193.72269287 65.40562988 -193.19538574 65.99875977 -192.65209961 66.60986328 C-188.78131556 70.99686932 -185.06428859 75.5072521 -181.3984375 80.06640625 C-178.55888022 83.53954553 -175.63271939 86.92893444 -172.6875 90.3125 C-172.14053467 90.94115967 -171.59356934 91.56981934 -171.0300293 92.2175293 C-169.91546178 93.49829423 -168.80079647 94.77897406 -167.68603516 96.05957031 C-164.90525375 99.25992517 -162.13797019 102.47176525 -159.375 105.6875 C-158.87830811 106.26346924 -158.38161621 106.83943848 -157.86987305 107.43286133 C-155.47749293 110.21989504 -153.15650972 113.02575337 -151 116 C-146.70286995 115.5041773 -144.09475129 112.75837531 -141 110 C-136.83388156 106.3778484 -132.63749163 102.90009644 -128.1875 99.625 C-123.33980212 96.05166391 -118.65676132 92.31835773 -114 88.5 C-108.51169078 84.0054693 -102.95210572 79.65594106 -97.25 75.43359375 C-84.20601579 65.72923367 -71.5090325 55.52768138 -58.76171875 45.4375 C-49.13294568 37.8272718 -39.36811002 30.39934948 -29.59667969 22.97363281 C-14.67199949 11.6486477 -14.67199949 11.6486477 0 0 Z"/>
<path style="opacity: 1; visibility: visible; fill: rgb(255, 0, 0);" data-index="3" transform="translate(422,217)" fill="#F5450D" d="M0 0 C1.41438406 1.57286684 2.75604401 3.21139996 4.0625 4.875 C7.12839758 8.71228527 10.24537654 12.44015511 13.5625 16.0625 C16.41145966 19.19096172 19.13302445 22.36278893 21.75 25.6875 C25.1882252 30.05219306 28.78488982 34.25282907 32.4375 38.4375 C37.74975706 44.52788406 42.92226315 50.71192737 48 57 C53.41400585 63.68555218 58.92613888 70.27073088 64.5402832 76.78808594 C69.12147622 82.11652407 73.58839148 87.52996122 78 93 C78.7425 93.88558594 79.485 94.77117187 80.25 95.68359375 C82 98 82 98 82 100 C72.35971003 100.20900144 62.72020559 100.36867783 53.07814026 100.46630955 C48.60026752 100.51318147 44.12395018 100.57669611 39.64697266 100.67895508 C35.3220505 100.77711693 30.998619 100.83063279 26.67266846 100.85389519 C25.02671851 100.87046024 23.38084563 100.90281154 21.73553467 100.95157051 C8.85273788 101.31799104 8.85273788 101.31799104 4.24424744 98.03962708 C2.22124775 95.78798817 0.59563276 93.56556446 -1 91 C-1.80308594 90.03191406 -2.60617187 89.06382812 -3.43359375 88.06640625 C-4.09488281 87.24011719 -4.75617188 86.41382813 -5.4375 85.5625 C-8.38598373 81.92502351 -11.4069117 78.39671879 -14.5625 74.9375 C-18.13529084 71.01359006 -21.46873052 66.96719021 -24.73828125 62.7890625 C-26.50673527 60.60827464 -28.30667532 58.49810421 -30.16796875 56.3984375 C-30.71799561 55.77420898 -31.26802246 55.14998047 -31.8347168 54.50683594 C-32.92828842 53.27105671 -34.02981295 52.04226097 -35.13989258 50.82128906 C-39 46.44347604 -39 46.44347604 -39 42 C-37.29760066 39.69448188 -35.59794697 37.61971547 -33.6875 35.5 C-33.14569092 34.88342529 -32.60388184 34.26685059 -32.0456543 33.6315918 C-27.64417528 28.64623659 -23.12492107 23.76876401 -18.60546875 18.890625 C-15.27831451 15.19932944 -12.15829431 11.3649223 -9.0703125 7.47265625 C-2.8135861 0 -2.8135861 0 0 0 Z"/>
<path style="opacity: 1; visibility: visible; fill: rgb(255, 0, 0);" data-index="4" transform="translate(157.55859375,154.37109375)" fill="#F75210" d="M0 0 C5.73686782 0.31225493 9.88702243 3.53987577 14.50390625 6.69140625 C15.9271521 7.63064941 15.9271521 7.63064941 17.37915039 8.58886719 C19.38675503 9.91486444 21.38951847 11.24821682 23.38769531 12.58837891 C27.38016536 15.25619668 31.41022182 17.86395344 35.44067383 20.47387695 C43.09626637 25.43744892 50.71887509 30.45193485 58.31640625 35.50390625 C58.93507568 35.91479492 59.55374512 36.32568359 60.19116211 36.74902344 C65.35527952 40.19827262 65.35527952 40.19827262 66.06640625 43.75390625 C65.2277746 48.9534225 63.1282348 49.79750259 59.05322266 52.81347656 C54.90779 55.69489713 50.64034527 58.33805052 46.31640625 60.94140625 C39.39878432 65.16186541 32.57473795 69.46900605 25.86425781 74.01074219 C20.47830528 77.64215728 14.98168206 81.084142 9.45385742 84.49487305 C6.27661918 86.33529417 6.27661918 86.33529417 3.44140625 88.62890625 C0.62890625 89.00390625 0.62890625 89.00390625 -2.55859375 88.62890625 C-5.54040166 85.82478154 -6.48727658 84.13738441 -7.05979919 80.05540466 C-7.08038952 78.66135606 -7.07916745 77.26687575 -7.06030273 75.87280273 C-7.06840721 74.72554718 -7.06840721 74.72554718 -7.07667542 73.55511475 C-7.08914512 71.03634505 -7.07268585 68.51872225 -7.0546875 66 C-7.05484251 64.24552857 -7.05633189 62.49105679 -7.05909729 60.73658752 C-7.06048043 57.06390196 -7.04793628 53.39160733 -7.02514648 49.71899414 C-6.99674103 45.0122406 -6.99950592 40.30613544 -7.0122366 35.59933376 C-7.01919185 31.97819991 -7.01140662 28.35721587 -6.99897957 24.73610115 C-6.99446505 23.00056597 -6.99412828 21.26501471 -6.99804497 19.52947807 C-7.00095626 17.10452168 -6.98445574 14.6804587 -6.96264648 12.25561523 C-6.96714813 11.53914322 -6.97164978 10.8226712 -6.97628784 10.08448792 C-6.93083603 7.0420586 -6.70081746 4.89497918 -5.25575256 2.19154358 C-3.55859375 0.62890625 -3.55859375 0.62890625 0 0 Z"/>
<path style="opacity: 1; visibility: visible; fill: rgb(245, 69, 14);" data-index="5" transform="translate(500,311)" fill="#DD310E" d="M0 0 C1.37562854 1.28965176 2.70766393 2.62689293 4 4 C4 4.66 4 5.32 4 6 C-5.74419823 6.06941478 -15.48833795 6.12276776 -25.23273277 6.15543652 C-29.75713184 6.17111343 -34.28136214 6.19238839 -38.80566406 6.22631836 C-43.16932465 6.25883996 -47.53282261 6.27683774 -51.896595 6.28463173 C-53.56403795 6.29018824 -55.23147169 6.30103834 -56.89884567 6.31719017 C-59.22882289 6.33886932 -61.55812227 6.34197101 -63.88818359 6.34057617 C-64.92935585 6.35675491 -64.92935585 6.35675491 -65.99156189 6.3732605 C-67.91220093 6.36076355 -67.91220093 6.36076355 -71 6 C-71.66 5.01 -72.32 4.02 -73 3 C-71.98445541 3.16265854 -70.96891083 3.32531708 -69.92259216 3.49290466 C-66.30058911 3.96114117 -62.88618973 4.12063585 -59.23852539 4.11352539 C-57.93770523 4.11344986 -56.63688507 4.11337433 -55.29664612 4.11329651 C-53.89698243 4.10819141 -52.49731914 4.10297544 -51.09765625 4.09765625 C-49.65034535 4.09578866 -48.20303381 4.09436637 -46.75572205 4.09336853 C-42.9664024 4.08957018 -39.17712174 4.0797631 -35.38781738 4.06866455 C-31.51310758 4.05839247 -27.6383914 4.05385854 -23.76367188 4.04882812 C-16.17576357 4.03813816 -8.58788727 4.02109434 -1 4 C-0.67 2.68 -0.34 1.36 0 0 Z"/>
<path style="opacity: 1; visibility: visible; fill: rgb(255, 0, 0);" data-index="6" transform="translate(199,303)" fill="#BEBEBD" d="M0 0 C-3.99476426 1.05125375 -7.77322733 1.97073901 -11.875 2.5 C-15.09251494 2.7015084 -15.09251494 2.7015084 -17 5 C-20.0390625 4.9765625 -20.0390625 4.9765625 -23.625 4.625 C-24.81351563 4.51414062 -26.00203125 4.40328125 -27.2265625 4.2890625 C-28.14179688 4.19367188 -29.05703125 4.09828125 -30 4 C-30.33 3.01 -30.66 2.02 -31 1 C-30.09290283 0.96241577 -30.09290283 0.96241577 -29.16748047 0.92407227 C-26.4031438 0.80736994 -23.63908634 0.68498266 -20.875 0.5625 C-19.92367187 0.52318359 -18.97234375 0.48386719 -17.9921875 0.44335938 C-14.11913636 0.26853415 -10.394469 0.06874004 -6.5703125 -0.59765625 C-3.9930608 -1.00108623 -2.44219321 -0.84537457 0 0 Z"/>
<path style="opacity: 1; visibility: visible; fill: rgb(255, 0, 0);" data-index="7" transform="translate(249,273)" fill="#D8D7D7" d="M0 0 C-1.61298564 3.85476229 -4.11513814 6.51633852 -6.9375 9.5625 C-7.81277344 10.51253906 -8.68804687 11.46257812 -9.58984375 12.44140625 C-11.36622676 14.32719372 -13.15032434 16.18695158 -15 18 C-15.33 17.01 -15.66 16.02 -16 15 C-16.99 14.67 -17.98 14.34 -19 14 C-18.19175781 13.40832031 -17.38351563 12.81664062 -16.55078125 12.20703125 C-15.47119178 11.40907382 -14.39177384 10.61088428 -13.3125 9.8125 C-12.25675781 9.03519531 -11.20101562 8.25789063 -10.11328125 7.45703125 C-6.94944911 5.06331886 -6.94944911 5.06331886 -4.23046875 2.19921875 C-2 0 -2 0 0 0 Z"/>
<path style="opacity: 1; visibility: visible; fill: rgb(245, 69, 14);" data-index="8" transform="translate(535,56)" fill="#E7650B" d="M0 0 C0.66 0.33 1.32 0.66 2 1 C0.0843735 3.08429801 -1.83246061 5.16746303 -3.75 7.25 C-4.28882813 7.83652344 -4.82765625 8.42304687 -5.3828125 9.02734375 C-8.19681853 12.08156981 -11.03381156 15.09140745 -14 18 C-14.66 16.35 -15.32 14.7 -16 13 C-10.72 8.71 -5.44 4.42 0 0 Z"/>
<path style="opacity: 1; visibility: visible; fill: rgb(245, 69, 14);" data-index="9" transform="translate(252,302)" fill="#D32D0D" d="M0 0 C0.33 0.99 0.66 1.98 1 3 C0.43152344 3.556875 -0.13695312 4.11375 -0.72265625 4.6875 C-4.53680541 8.45707646 -8.26831157 12.23131555 -11.75 16.3125 C-14.26810369 19.2532225 -16.85398388 21.71198828 -20 24 C-18.65324235 21.02022724 -17.139133 18.86290683 -14.8828125 16.50390625 C-14.27566406 15.86259766 -13.66851562 15.22128906 -13.04296875 14.56054688 C-12.41003906 13.90119141 -11.77710938 13.24183594 -11.125 12.5625 C-7.24315763 8.49256836 -3.42778651 4.4699025 0 0 Z"/>

<path style="opacity: 1; visibility: visible; fill: rgb(245, 69, 14);" data-index="11" transform="translate(519,70)" fill="#EC6D13" d="M0 0 C2 3 2 3 1.9375 4.9375 C0.61848701 7.83932859 -1.44878816 9.16836073 -4 11 C-4.66 9.68 -5.32 8.36 -6 7 C-4.02 4.69 -2.04 2.38 0 0 Z"/>
<path style="opacity: 1; visibility: visible; fill: rgb(245, 69, 14);" data-index="12" transform="translate(223,334)" fill="#C9250A" d="M0 0 C0.33 0.66 0.66 1.32 1 2 C-0.41388379 3.75224914 -1.83122783 5.50170655 -3.25 7.25 C-4.03890625 8.22453125 -4.8278125 9.1990625 -5.640625 10.203125 C-7.66465805 12.60247544 -9.74122349 14.82411437 -12 17 C-12.66 16.67 -13.32 16.34 -14 16 C-13.15695313 15.09636719 -12.31390625 14.19273437 -11.4453125 13.26171875 C-10.33843161 12.07041474 -9.23166684 10.87900285 -8.125 9.6875 C-7.56941406 9.09259766 -7.01382813 8.49769531 -6.44140625 7.88476562 C-5.90644531 7.30791016 -5.37148437 6.73105469 -4.8203125 6.13671875 C-4.32805176 5.60780029 -3.83579102 5.07888184 -3.32861328 4.53393555 C-1.79418204 2.82718765 -1.79418204 2.82718765 0 0 Z"/>
<path data-index="13" transform="translate(420,217)" fill="#D3520E" d="M0 0 C0.66 0 1.32 0 2 0 C2.66 1.65 3.32 3.3 4 5 C3.01 4.67 2.02 4.34 1 4 C-1.13946938 5.43058496 -1.13946938 5.43058496 -3.1875 7.4375 C-4.26064453 8.42556641 -4.26064453 8.42556641 -5.35546875 9.43359375 C-5.89816406 9.95050781 -6.44085938 10.46742188 -7 11 C-7.66 10.67 -8.32 10.34 -9 10 C-7.5484451 8.32742645 -6.08855591 6.66208242 -4.625 5 C-3.81289063 4.071875 -3.00078125 3.14375 -2.1640625 2.1875 C-1.44992187 1.465625 -0.73578125 0.74375 0 0 Z"/>
<path style="opacity: 1; visibility: visible; fill: rgb(245, 69, 14);" data-index="14" transform="translate(535,56)" fill="#B35407" d="M0 0 C0.66 0.33 1.32 0.66 2 1 C0.73965413 2.50882261 -0.53363649 4.00684044 -1.8125 5.5 C-2.52019531 6.3353125 -3.22789062 7.170625 -3.95703125 8.03125 C-6.69895755 10.67356521 -8.3050663 10 -12 10 C-8.04 6.7 -4.08 3.4 0 0 Z"/>
<path style="opacity: 1; visibility: visible; fill: rgb(255, 0, 0);" data-index="15" transform="translate(249,273)" fill="#979798" d="M0 0 C-1.36370299 2.99220268 -2.94908083 5.29026529 -5.125 7.75 C-5.93324219 8.67039062 -5.93324219 8.67039062 -6.7578125 9.609375 C-7.37269531 10.29773438 -7.37269531 10.29773438 -8 11 C-9.32 10.34 -10.64 9.68 -12 9 C-10.38050958 7.49405319 -8.75424026 5.99539332 -7.125 4.5 C-6.22007812 3.6646875 -5.31515625 2.829375 -4.3828125 1.96875 C-2 0 -2 0 0 0 Z"/>
<path style="opacity: 1; visibility: visible; fill: rgb(245, 69, 14);" data-index="16" transform="translate(284,266)" fill="#CC3F0C" d="M0 0 C0.33 0.66 0.66 1.32 1 2 C-0.11733729 3.50571657 -1.24410035 5.00444292 -2.375 6.5 C-3.00148438 7.3353125 -3.62796875 8.170625 -4.2734375 9.03125 C-4.84320313 9.6809375 -5.41296875 10.330625 -6 11 C-6.66 11 -7.32 11 -8 11 C-8 11.66 -8 12.32 -8 13 C-8.66 12.67 -9.32 12.34 -10 12 C-9.52949219 11.46890625 -9.05898438 10.9378125 -8.57421875 10.390625 C-7.95160156 9.68421875 -7.32898438 8.9778125 -6.6875 8.25 C-6.07261719 7.55390625 -5.45773437 6.8578125 -4.82421875 6.140625 C-3.12685266 4.14885494 -1.54522191 2.11101085 0 0 Z"/>

<path data-index="18" transform="translate(155.84765625,154.90234375)" fill="#D95618" d="M0 0 C2.05078125 0.03255208 4.1015625 0.06510417 6.15234375 0.09765625 C6.15234375 0.42765625 6.15234375 0.75765625 6.15234375 1.09765625 C5.05921875 1.38640625 3.96609375 1.67515625 2.83984375 1.97265625 C-0.8877947 2.91658829 -0.8877947 2.91658829 -3.84765625 5.09765625 C-2.72914438 0.14424653 -2.72914438 0.14424653 0 0 Z"/>
<path data-index="19" transform="translate(433,135)" fill="#CD590D" d="M0 0 C0.99 0.33 1.98 0.66 3 1 C-2.14285714 5.42857143 -2.14285714 5.42857143 -6 6 C-4 4 -2 2 0 0 Z"/>
<path style="opacity: 1; visibility: visible; fill: rgb(255, 0, 0);" data-index="20" transform="translate(9,162)" fill="#ABAAAB" d="M0 0 C0.33 0 0.66 0 1 0 C2.0070238 5.03511899 1.97387813 8.23947038 0 13 C-0.33 13 -0.66 13 -1 13 C-1.07654536 8.48382401 -1.10228696 4.40914783 0 0 Z"/>
<path style="opacity: 1; visibility: visible; fill: rgb(245, 69, 14);" data-index="21" transform="translate(517,72)" fill="#F5741E" d="M0 0 C0.66 0 1.32 0 2 0 C1.60196439 2.88575819 1.20990931 3.82189513 -1.0625 5.75 C-1.701875 6.1625 -2.34125 6.575 -3 7 C-3 3.47967572 -2.29648649 2.5614657 0 0 Z"/>
</svg>